<?xml version="1.0" encoding="utf-8"?>
<!-- Generator: Adobe Illustrator 22.0.1, SVG Export Plug-In . SVG Version: 6.00 Build 0)  -->
<svg version="1.1" xmlns="http://www.w3.org/2000/svg" xmlns:xlink="http://www.w3.org/1999/xlink" x="0px" y="0px"
	 viewBox="0 0 2272 1872" style="enable-background:new 0 0 2272 1872;" xml:space="preserve">
<style type="text/css">
	.st0{fill:#B7D7D9;}
	.st1{fill:#B0EBED;}
	.st2{fill:#E3FFFF;}
	.st3{fill:#FFBEB2;}
	.st4{fill:#7671B5;}
	.st5{fill:#6564A3;}
	.st6{fill:#373642;}
	.st7{fill:#28282B;}
	.st8{fill:#AE79B1;}
	.st9{fill:#936193;}
	.st10{fill:#744A77;}
	.st11{fill:#36206D;}
	.st12{fill:#6244AD;}
	.st13{fill:#FFA59C;}
	.st14{fill:#4B2C89;}
	.st15{fill:#ABC7FF;}
	.st16{fill:#627799;}
	.st17{fill:#A87F60;}
	.st18{fill:#87A6D8;}
	.st19{fill:#635C5B;}
	.st20{fill:#845D42;}
	.st21{fill:#C69471;}
	.st22{fill:#8080CE;}
	.st23{fill:#B9B9EF;}
	.st24{fill:#A1A1C9;}
	.st25{fill:#6262A8;}
	.st26{fill:#B277B1;}
	.st27{fill:#7272AF;}
	.st28{fill:#7979C6;}
</style>
<g id="Background">
	<g>
		<path class="st0" d="M2104.2,475.3c-1.4-27-6.1-53.8-17.1-78.6c-9.9-22.4-25.1-42.4-42.8-59.3c-34-32.5-77.6-54.3-123.5-63.9
			c-51.4-10.7-105.7-6.6-154.3,13.6c-3.3,1.4-3.5,5.4-1.8,7.4c-148.2,43.5-150.2,144.4-221.6,166.8c-180.4,56.4-375,66.7-560.4,29.7
			C897,474,813.4,446.9,727.1,433.2c-86.3-13.7-177.8-13.2-257.4,22.9c-61.5,27.9-111.2,75-150.4,130.5
			c-27.6,23.9-51.9,51-72.7,81.5c-28.7,42.2-50,89.7-62.3,139.2c-12.7,51-16.6,105.2-8.2,157.3c4.5,28,13.5,55.4,28.4,79.7
			c12.6,20.4,29,38.3,47.6,53.4c14.5,11.7,30,21.8,46.3,30.6c76.6,78.3,192.8,112.5,302.5,135.1c125.1,25.8,258.5,46.2,356.9,127.6
			c45.6,37.8,81.1,86.8,127.7,123.4c100.5,78.9,238.1,89.2,365.7,81.9c79.6-4.6,160.9-15.3,231.4-52.5c33.4-17.6,64.2-42.2,88-71.6
			c1.8,1.2,4.4,1.4,6.4-0.6c37.3-36.1,75.1-74.7,95.1-123.5c10.8-26.3,14.1-54.1,12.3-82.3c-1.9-29.9-7.8-59.5-10.1-89.4
			c-6.2-79.2,2.5-159.4,25.1-235.6c4-4.9,8-9.8,11.9-14.6c42-51.9,80.6-107.6,108.7-167.9C2077.9,677.5,2109.2,574.9,2104.2,475.3z
			 M262.6,687.2c-57.9,129.1-75.8,289.8,5.8,405.3c1.7,2.5,3.5,4.9,5.3,7.3c-41-28.8-70.6-68.8-82.6-117.8
			c-12.4-50.5-10.2-105.4,0.3-156c9.9-48.1,28.2-94.3,53.5-136.3c15.3-25.4,33.4-49.6,53.9-71.6
			C285.2,640.3,273.2,663.6,262.6,687.2z M1792.5,1136.4c4.6-49.1,28.2-92.3,57.4-132.8c-1.9,22.8-2.5,45.5-2.9,67.6
			c-1.3,76.5,0.9,156.2-30.3,227.8c-0.4,0.8-0.7,1.6-1.1,2.5C1807.4,1246.5,1787.3,1191.9,1792.5,1136.4z M1875.4,990.9
			c-11,51.5-16,104.5-14.3,157.2c0.9,27.6,4.1,54.9,7.8,82.2c4.1,30.3,7.2,61.2-0.3,91.2c-11.8,47.1-43.7,85.3-77,120.1
			c14.6-25.3,24.1-53.1,26.6-82.4c1.1-12.6,0.8-25.1-0.2-37.6c16.1-30.5,26.1-64.7,31.4-98.5c12.2-77.8,3.6-156.9,12.1-235
			c6.8-8.9,13.8-17.7,20.8-26.4C1879.8,971.4,1877.5,981.1,1875.4,990.9z M2078.1,610.6c-8.4,30.7-20.1,60.4-34.6,88.6
			c0.8-2.3,1.5-4.6,2.2-6.9c26.9-86.5,28.2-183.4-10.8-265.1c-39-81.7-122.5-144.4-213-145c-11.8,1.8-22.9,3.9-33.3,6.3
			c79.6-24.9,171.4-8.8,236,44.8c18.4,15.3,34.7,33.4,46.5,54.3c12.8,22.7,19.3,48.3,21.8,74.1
			C2097.6,511.3,2091.3,562.6,2078.1,610.6z"/>
		<path class="st1" d="M2104.2,475.3c-1.4-27-6.1-53.8-17.1-78.6c-9.9-22.4-25.1-42.4-42.8-59.3c-11.5-11-24.1-20.7-37.5-29.2
			c-3.7,1.4-7.5,2.9-11.1,4.5c10.1,6.1,19.7,12.8,28.9,20.4c18.4,15.3,34.7,33.4,46.5,54.3c12.8,22.7,19.3,48.3,21.8,74.1
			c4.7,49.7-1.6,101-14.8,149c-8.4,30.7-20.1,60.4-34.6,88.6c0.8-2.3,1.5-4.6,2.2-6.9c26.9-86.5,28.2-183.4-10.8-265.1
			c-17.4-36.5-43.7-69.1-75.5-94.2c-35.9,24.3-66.5,58.5-88.1,96c-44.4,77.1-60,166.9-82,253.2c-24,94-57.4,187.2-114.5,265.7
			c-57.1,78.4-140.6,141.2-236.3,157.2c-67.7,11.4-137.4-0.9-202.6-22c-152.7-49.3-285.2-145-425.4-223.1
			C704.3,800.8,591.3,750.9,471.3,731c-75.2-12.4-153.5-12.3-227.7,4c-41.7,119.3-46.9,255.8,24.8,357.5c1.7,2.5,3.5,4.9,5.3,7.3
			c-41-28.8-70.6-68.8-82.6-117.8c-12.4-50.5-10.2-105.4,0.3-156c6-29.1,15.1-57.5,26.9-84.7c-4.5,1.2-8.9,2.5-13.3,3.9
			c-8.5,20.2-15.4,41.1-20.7,62.4c-12.7,51-16.6,105.2-8.2,157.3c4.5,28,13.5,55.4,28.4,79.7c12.6,20.4,29,38.3,47.6,53.4
			c14.5,11.7,30,21.8,46.3,30.6c76.6,78.3,192.8,112.5,302.5,135.1c125.1,25.8,258.5,46.2,356.9,127.6
			c45.6,37.8,81.1,86.8,127.7,123.4c100.5,78.9,238.1,89.2,365.7,81.9c79.6-4.6,160.9-15.3,231.4-52.5c33.4-17.6,64.2-42.2,88-71.6
			c1.8,1.2,4.4,1.4,6.4-0.6c37.3-36.1,75.1-74.7,95.1-123.5c10.8-26.3,14.1-54.1,12.3-82.3c-1.9-29.9-7.8-59.5-10.1-89.4
			c-6.2-79.2,2.5-159.4,25.1-235.6c4-4.9,8-9.8,11.9-14.6c42-51.9,80.6-107.6,108.7-167.9C2077.9,677.5,2109.2,574.9,2104.2,475.3z
			 M1792.5,1136.4c4.6-49.1,28.2-92.3,57.4-132.8c-1.9,22.8-2.5,45.5-2.9,67.6c-1.3,76.5,0.9,156.2-30.3,227.8
			c-0.4,0.8-0.7,1.6-1.1,2.5C1807.4,1246.5,1787.3,1191.9,1792.5,1136.4z M1875.4,990.9c-11,51.5-16,104.5-14.3,157.2
			c0.9,27.6,4.1,54.9,7.8,82.2c4.1,30.3,7.2,61.2-0.3,91.2c-11.8,47.1-43.7,85.3-77,120.1c14.6-25.3,24.1-53.1,26.6-82.4
			c1.1-12.6,0.8-25.1-0.2-37.6c16.1-30.5,26.1-64.7,31.4-98.5c12.2-77.8,3.6-156.9,12.1-235c6.8-8.9,13.8-17.7,20.8-26.4
			C1879.8,971.4,1877.5,981.1,1875.4,990.9z"/>
		<g>
			<g>
				<circle class="st1" cx="1503.5" cy="194.1" r="8.1"/>
				<circle class="st1" cx="1548.3" cy="194.1" r="8.1"/>
				<circle class="st1" cx="1593.1" cy="194.1" r="8.1"/>
				<circle class="st1" cx="1637.9" cy="194.1" r="8.1"/>
				<circle class="st1" cx="1682.8" cy="194.1" r="8.1"/>
				<circle class="st1" cx="1727.6" cy="194.1" r="8.1"/>
				<circle class="st1" cx="1772.4" cy="194.1" r="8.1"/>
				<circle class="st1" cx="1817.2" cy="194.1" r="8.1"/>
				<circle class="st1" cx="1862.1" cy="194.1" r="8.1"/>
				<circle class="st1" cx="1906.9" cy="194.1" r="8.1"/>
				<circle class="st1" cx="1951.7" cy="194.1" r="8.1"/>
			</g>
			<g>
				<circle class="st1" cx="1503.5" cy="227" r="8.1"/>
				<circle class="st1" cx="1548.3" cy="227" r="8.1"/>
				<circle class="st1" cx="1593.1" cy="227" r="8.1"/>
				<circle class="st1" cx="1637.9" cy="227" r="8.1"/>
				<circle class="st1" cx="1682.8" cy="227" r="8.1"/>
				<circle class="st1" cx="1727.6" cy="227" r="8.1"/>
				<circle class="st1" cx="1772.4" cy="227" r="8.1"/>
				<circle class="st1" cx="1817.2" cy="227" r="8.1"/>
				<circle class="st1" cx="1862.1" cy="227" r="8.1"/>
				<circle class="st1" cx="1906.9" cy="227" r="8.1"/>
				<circle class="st1" cx="1951.7" cy="227" r="8.1"/>
			</g>
			<g>
				<circle class="st1" cx="1503.5" cy="260" r="8.1"/>
				<circle class="st1" cx="1548.3" cy="260" r="8.1"/>
				<circle class="st1" cx="1593.1" cy="260" r="8.1"/>
				<circle class="st1" cx="1637.9" cy="260" r="8.1"/>
				<circle class="st1" cx="1682.8" cy="260" r="8.1"/>
				<circle class="st1" cx="1727.6" cy="260" r="8.1"/>
				<circle class="st1" cx="1772.4" cy="260" r="8.1"/>
				<circle class="st1" cx="1817.2" cy="260" r="8.1"/>
				<circle class="st1" cx="1862.1" cy="260" r="8.1"/>
				<circle class="st1" cx="1906.9" cy="260" r="8.1"/>
				<circle class="st1" cx="1951.7" cy="260" r="8.1"/>
			</g>
			<g>
				<circle class="st1" cx="1503.5" cy="292.9" r="8.1"/>
				<circle class="st1" cx="1548.3" cy="292.9" r="8.1"/>
				<circle class="st1" cx="1593.1" cy="292.9" r="8.1"/>
				<circle class="st1" cx="1637.9" cy="292.9" r="8.1"/>
				<circle class="st1" cx="1682.8" cy="292.9" r="8.1"/>
				<circle class="st1" cx="1727.6" cy="292.9" r="8.1"/>
				<circle class="st1" cx="1772.4" cy="292.9" r="8.1"/>
				<circle class="st1" cx="1817.2" cy="292.9" r="8.1"/>
				<circle class="st1" cx="1862.1" cy="292.9" r="8.1"/>
				<circle class="st1" cx="1906.9" cy="292.9" r="8.1"/>
				<circle class="st1" cx="1951.7" cy="292.9" r="8.1"/>
			</g>
			<g>
				<circle class="st1" cx="1503.5" cy="325.8" r="8.1"/>
				<circle class="st1" cx="1548.3" cy="325.8" r="8.1"/>
				<circle class="st1" cx="1593.1" cy="325.8" r="8.1"/>
				<circle class="st1" cx="1637.9" cy="325.8" r="8.1"/>
				<circle class="st1" cx="1682.8" cy="325.8" r="8.1"/>
				<circle class="st1" cx="1727.6" cy="325.8" r="8.1"/>
				<circle class="st1" cx="1772.4" cy="325.8" r="8.1"/>
				<circle class="st1" cx="1817.2" cy="325.8" r="8.1"/>
				<circle class="st1" cx="1862.1" cy="325.8" r="8.1"/>
				<circle class="st1" cx="1906.9" cy="325.8" r="8.1"/>
				<circle class="st1" cx="1951.7" cy="325.8" r="8.1"/>
			</g>
			<g>
				<circle class="st1" cx="1503.5" cy="358.7" r="8.1"/>
				<circle class="st1" cx="1548.3" cy="358.7" r="8.1"/>
				<circle class="st1" cx="1593.1" cy="358.7" r="8.1"/>
				<circle class="st1" cx="1637.9" cy="358.7" r="8.1"/>
				<circle class="st1" cx="1682.8" cy="358.7" r="8.1"/>
				<circle class="st1" cx="1727.6" cy="358.7" r="8.1"/>
				<circle class="st1" cx="1772.4" cy="358.7" r="8.1"/>
				<circle class="st1" cx="1817.2" cy="358.7" r="8.1"/>
				<circle class="st1" cx="1862.1" cy="358.7" r="8.1"/>
				<circle class="st1" cx="1906.9" cy="358.7" r="8.1"/>
				<circle class="st1" cx="1951.7" cy="358.7" r="8.1"/>
			</g>
		</g>
		<g>
			<g>
				<circle class="st0" cx="340.5" cy="1136.8" r="15.9"/>
				<circle class="st0" cx="428.3" cy="1136.8" r="15.9"/>
				<circle class="st0" cx="516" cy="1136.8" r="15.9"/>
			</g>
			<g>
				<circle class="st0" cx="252.8" cy="1201.2" r="15.9"/>
				<circle class="st0" cx="340.5" cy="1201.2" r="15.9"/>
				<circle class="st0" cx="428.3" cy="1201.2" r="15.9"/>
				<circle class="st0" cx="516" cy="1201.2" r="15.9"/>
				<circle class="st0" cx="603.7" cy="1201.2" r="15.9"/>
			</g>
			<g>
				<circle class="st0" cx="252.8" cy="1265.6" r="15.9"/>
				<circle class="st0" cx="340.5" cy="1265.6" r="15.9"/>
				<circle class="st0" cx="428.3" cy="1265.6" r="15.9"/>
				<circle class="st0" cx="516" cy="1265.6" r="15.9"/>
				<circle class="st0" cx="603.7" cy="1265.6" r="15.9"/>
			</g>
			<g>
				<circle class="st0" cx="252.8" cy="1330" r="15.9"/>
				<circle class="st0" cx="340.5" cy="1330" r="15.9"/>
				<circle class="st0" cx="428.3" cy="1330" r="15.9"/>
				<circle class="st0" cx="516" cy="1330" r="15.9"/>
				<circle class="st0" cx="603.7" cy="1330" r="15.9"/>
			</g>
			<g>
				<circle class="st0" cx="252.8" cy="1394.4" r="15.9"/>
				<circle class="st0" cx="340.5" cy="1394.4" r="15.9"/>
				<circle class="st0" cx="428.3" cy="1394.4" r="15.9"/>
				<circle class="st0" cx="516" cy="1394.4" r="15.9"/>
				<circle class="st0" cx="603.7" cy="1394.4" r="15.9"/>
			</g>
			<g>
				<circle class="st0" cx="340.5" cy="1458.8" r="15.9"/>
				<circle class="st0" cx="428.3" cy="1458.8" r="15.9"/>
				<circle class="st0" cx="516" cy="1458.8" r="15.9"/>
			</g>
		</g>
		<g>
			<g>
				<circle class="st2" cx="1601.8" cy="1467.3" r="10.1"/>
				<circle class="st2" cx="1657.6" cy="1467.3" r="10.1"/>
				<circle class="st2" cx="1713.4" cy="1467.3" r="10.1"/>
			</g>
			<g>
				<circle class="st2" cx="1546" cy="1508.2" r="10.1"/>
				<circle class="st2" cx="1601.8" cy="1508.2" r="10.1"/>
				<circle class="st2" cx="1657.6" cy="1508.2" r="10.1"/>
				<circle class="st2" cx="1713.4" cy="1508.2" r="10.1"/>
				<circle class="st2" cx="1769.2" cy="1508.2" r="10.1"/>
			</g>
			<g>
				<circle class="st2" cx="1546" cy="1549.2" r="10.1"/>
				<circle class="st2" cx="1601.8" cy="1549.2" r="10.1"/>
				<circle class="st2" cx="1657.6" cy="1549.2" r="10.1"/>
				<circle class="st2" cx="1713.4" cy="1549.2" r="10.1"/>
				<circle class="st2" cx="1769.2" cy="1549.2" r="10.1"/>
			</g>
			<g>
				<circle class="st2" cx="1546" cy="1590.2" r="10.1"/>
				<circle class="st2" cx="1601.8" cy="1590.2" r="10.1"/>
				<circle class="st2" cx="1657.6" cy="1590.2" r="10.1"/>
				<circle class="st2" cx="1713.4" cy="1590.2" r="10.1"/>
				<circle class="st2" cx="1769.2" cy="1590.2" r="10.1"/>
			</g>
			<g>
				<circle class="st2" cx="1546" cy="1631.1" r="10.1"/>
				<circle class="st2" cx="1601.8" cy="1631.1" r="10.1"/>
				<circle class="st2" cx="1657.6" cy="1631.1" r="10.1"/>
				<circle class="st2" cx="1713.4" cy="1631.1" r="10.1"/>
				<circle class="st2" cx="1769.2" cy="1631.1" r="10.1"/>
			</g>
			<g>
				<circle class="st2" cx="1601.8" cy="1672.1" r="10.1"/>
				<circle class="st2" cx="1657.6" cy="1672.1" r="10.1"/>
				<circle class="st2" cx="1713.4" cy="1672.1" r="10.1"/>
			</g>
		</g>
	</g>
</g>
<g id="object">
	<g>
		<g>
			<g>
				<path class="st3" d="M1732.6,744.5c0,0,46.2-14.3,59.7-7.5c13.4,6.8,20.7,28.9,12.8,34.9c0,0-1.4,5.3-4.9,6.1
					c0,0-6.4-2.4-15.1-5.7c0,0-5.5-6.6-6.9-11.9c0,0,1.8,23.4-3,24c-4.8,0.6-7.1-21.3-12.4-23.4s-22.6,5.5-22.6,5.5
					S1733.9,755.1,1732.6,744.5z"/>
				<g>
					<g>
						<path class="st4" d="M1214.9,550.3c0,0-244.2-20.3-453.7-226L741.4,345c0,0,149.4,283.4,378.7,318.4L1041.9,910
							c0,0,41.5,133,0,186.5c-41.5,53.6-327.8,234.9-77.7,686.6c0,0,45.4,40.7,37.9-75.7s-38.7-60.4-38.7-60.4s-35.5-107.6,9.3-215
							c44.8-107.4,211.5-215.4,226.1-312.3c14.6-96.9,149.7-381.8,186.3-405.2c0,0,162.5,77.7,357.1,55.4v-28.1
							c0,0-404.3-142.5-459.5-178.6C1227.5,527.1,1214.9,550.3,1214.9,550.3z"/>
					</g>
					<path class="st5" d="M1126.1,647.3c-1-5.2-6-8.5-10.5-11.1c-43.5-25-93.2-37.2-138.1-59.5c-45.1-22.4-85.1-55-116.2-94.6
						c-21-26.8-37.9-56.6-58.3-83.9c-16.3-21.8-35.5-42.2-58.6-56.2l-2.9,3c0,0,149.3,283.1,378.4,318.3c0.4-0.6,0.8-1.2,1.2-1.8
						C1124,657.2,1127.1,652.3,1126.1,647.3z"/>
					<g>
						<path class="st5" d="M1350.1,680.8c-28.3,47.7-56.6,95.4-84.9,143.1c-14.8,25-30.2,50.6-53.5,68
							c-32.6,24.4-77.1,28.8-116.7,19.4c-16.6-3.9-32.5-10.1-47.8-17.7l-5.2,16.4c0,0,41.5,133,0,186.5
							c-41.5,53.6-327.8,234.9-77.7,686.6c0,0,45.4,40.7,37.9-75.7c-7.5-116.4-38.7-60.4-38.7-60.4s-35.5-107.6,9.3-215
							c44.8-107.4,211.5-215.4,226.1-312.3c14.6-96.9,149.7-381.8,186.3-405.2c0,0,162.5,77.7,357.1,55.4v-15.2
							C1610.4,757.2,1473.3,723.6,1350.1,680.8z"/>
					</g>
					<g>
						<path class="st6" d="M1034.2,1105.3c-60.4,63.1-307.8,248.2-70,677.8c0,0,45.4,40.7,37.9-75.7c-7.5-116.4-38.7-60.4-38.7-60.4
							s-35.5-107.6,9.3-215c36.3-87.1,152.7-174.5,203.2-256c-11.9-11.7-24.7-22.5-38.5-31.9C1106.8,1123,1071,1108.7,1034.2,1105.3
							z"/>
					</g>
				</g>
				<g>
					<path class="st7" d="M1092.1,910.2c0,0-352.5-42.2-406.8,59.6s84.9,294.2,236.2,415.1c0,0,70.3,78,90.6,123.4
						c20.3,45.4,38.4-15.5,35.1-47.5s-35-111.4-54.7-120.6s-71.1-36.5-71.1-36.5s-99-161-96.8-200.4c2.2-39.4,280.5-20.9,280.5-20.9
						S1111.4,967.7,1092.1,910.2z"/>
				</g>
				<g>
					<path class="st8" d="M1255.4,680.4l-109.2-22.5c0,0-31.1,86.3-82.2,101.3c0,0-2.8,76.2-51.9,116.8
						c-49.1,40.6-320,73.5-318.9,256.2c0,0,83.8-36.5,118.6,10.7s176.1,315.1,361.4,268.9l75.6-32.2c0,0-48.7-40.5-60.8-122
						c-12.1-81.5,5.2-241.8,38.9-287.7c33.6-45.9,77.8-147.7,77.8-147.7S1240,749.3,1255.4,680.4z"/>
				</g>
				<path class="st9" d="M1253,927.8c-21.7-3.6-43.9-4.6-65.9-2.9c-64.4,5.2-130.8,33.3-191.4,10.7c-18.1-6.7-33.8-17.5-47.5-30.7
					c-27.2,9.9-59.5,21.1-91.9,35.3c10.5,23.1,25.5,44.2,44,61.5c36.3,34,86.1,53.3,135.9,52.8c14.3-0.2,28.6-1.9,42.1-6.5
					c19.5-6.6,36.5-18.6,54.2-29.1c27.3-16.2,56.8-28.8,87.4-37.6c2.2-4.4,4.6-8.3,7-11.5C1235.2,958.4,1244.2,943.6,1253,927.8z"/>
				<path class="st9" d="M1187.7,1257.5c-2.8-18.9-4-42.2-3.8-67.2c-21.9,17.7-44.9,33.9-70.1,46.5c-46.6,23.3-102.4,33.3-151.2,15
					c-21.6-8.1-40.9-21.4-59.1-35.5c-22.9-17.8-44.5-37.3-64.6-58.2c-19.1-19.9-38.6-42.3-65.4-48.9c-10.9-2.7-22.4-2.5-33.5-1.2
					c-16.2,2-32.1,6.6-46.9,13.5c-0.2,3.5-0.3,7-0.3,10.6c0,0,83.8-36.5,118.6,10.7c34.8,47.2,176.1,315.1,361.4,268.9l75.6-32.2
					C1248.5,1379.5,1199.8,1339,1187.7,1257.5z"/>
				<g>
					<path class="st9" d="M1209.4,804.9c9.4,4.5,18.8,8.9,28.1,13.4c-23.2,50.2-46.4,100.3-69.7,150.5
						c-32.8-28.9-70.3-52.4-110.7-69.2c-3-1.3-6.3-2.7-8-5.5c-2.6-4.2-0.6-9.7,1.5-14.2c8.9-19.7,17.9-39.5,26.8-59.2
						c5.5-12.2,13.6-45.3,26.1-51.3C1127.6,757.8,1188,794.7,1209.4,804.9z"/>
				</g>
				<g>
					<path class="st10" d="M1318.6,574.2l-0.2-0.1c-3.9-1.4-8.3-0.1-10.7,3.4c-17,24-93.3,104.9-99.2,193.3c-0.3,4,2.4,7.7,6.3,8.6
						c4.1,1,8.3-1.3,9.7-5.3c10.4-29.3,52.3-142.6,97.3-184.7C1326.7,584.9,1325,576.6,1318.6,574.2z"/>
				</g>
				<g>
					<path class="st10" d="M1213.9,525.9l-0.2,0c-4.1-0.8-8.2,1.3-10,5.1c-12.8,26.5-74.7,118.9-66,207c0.4,4,3.6,7.2,7.7,7.5
						c4.2,0.3,8-2.7,8.7-6.8c5.4-30.7,28.1-149.3,65.5-198.2C1223.7,535.1,1220.6,527.2,1213.9,525.9z"/>
				</g>
				<g>
					<g>
						<path class="st11" d="M1110.9,466c-14.4-19.5-21.7-43.6-20.4-67.8c1.2-24.2,10.9-47.4,27.3-65.4l2.4,2.2
							c-15.6,17.1-25.2,40.2-26.4,63.3c-1.2,23.1,6,47.1,19.8,65.7L1110.9,466z"/>
					</g>
				</g>
				<g>
					<g>
						<path class="st12" d="M1117.7,300.5c-8.9-32.5,7.4-71.3,38-90c28.4-17.4,67.6-18.2,99.9-2.1c2.1,1.1,4.5,2.4,5.9,4.7l-2.8,1.6
							c-0.9-1.5-2.7-2.6-4.5-3.4c-31.3-15.7-69.3-14.9-96.7,2c-29.4,18-45.1,55.2-36.6,86.4L1117.7,300.5z"/>
					</g>
				</g>
				<g>
					<path class="st11" d="M1106.9,303c-2.7,19.3,4.6,38.5,6.7,57.9c4.7,42.9-15.8,85.7-10.9,128.6c2.9,25.4,15.4,50.1,35.9,65.4
						c26.2,19.5,61.3,21.6,93.9,20.7c32.7-1,66.5-4.1,97.1,7.3c28.3,10.5,50.6,32.3,74.8,50.3c28.2,21,60.4,37.7,95.2,42.6
						c34.8,5,72.3-2.9,98.8-25.9c24.6-21.3,37.9-54.9,34.6-87.3c-3.3-32.4-23.1-62.6-51.4-78.5c-15.3-8.6-32.5-13.1-49.5-17.5
						c-42.6-11-85.2-22.1-127.8-33.1c-8.4-2.2-17-4.4-24-9.5c-17.8-12.9-19.3-38.2-22.6-59.9c-3.3-21.4-10.4-42.9-24.4-59.4
						c-14-16.5-33.6-26.9-52.8-36.9c-23.4-12.2-47.3-24.6-73.3-28.9C1166.4,232.2,1113,258.2,1106.9,303z"/>
				</g>
				<g>
					<path class="st3" d="M1211,481.3c0,0-2.6,86.9-23,104.8c0,0,47.6,49.3,108.9-1.9l-5.3-196.3
						C1291.6,387.9,1219.1,411.3,1211,481.3z"/>
				</g>
				<g>
					<path class="st3" d="M1182.2,249.7c-29.4,18.5-48.8,49.3-53.9,83.6c-8.3,55.8-14.1,153.4,43.7,171.4
						c81.8,25.5,149.4-29,158.1-105.3C1337.7,333.6,1275,191.3,1182.2,249.7z"/>
				</g>
				<g>
					<path class="st13" d="M1330.1,399.4c7.5-65.8-55.1-208.1-147.9-149.7c-29.4,18.5-48.8,49.3-53.9,83.6c-1.4,9.3-2.7,19.8-3.7,31
						c0.9,1,1.9,1.9,2.8,2.8c10.5,9.6,24,15.5,37.8,19.1c34.5,9.1,72.2,5.2,104.1-10.7c2.6-1.3,5.6-2.7,8.3-1.7c2.7,1.1,4,4.2,4.7,7
						c6.9,26.9-8.6,55.9-1.3,82.8c1.7,6.3,4.8,12.2,8.8,17.4C1311.8,460.8,1326.4,432.1,1330.1,399.4z"/>
				</g>
				<g>
					<path class="st14" d="M1580.2,587.6c-31,1.7-66.6-0.9-85.5-25.5c-10.8-14-13.7-32.6-23.1-47.6c-10-16-27.4-27.2-46.2-29.5
						c-17.5-2.2-24.9,3.7-41.4-2.7c-14.4,6.6-31.8,6.5-46.1-0.4c-14.3-6.9-25.3-20.3-29.2-35.7c-8.1-32.3,22-147.3-34.3-128.3
						c-1.7,3.9,0.3,9,4.2,10.6s14.7-0.6,16.3-4.5c-4.6,15-18.8,25.1-33.2,31.3c-48.3,20.8-101.2-0.9-145.6-29.1
						c-20.5-13-16.1-50.8-11.4-59.1c5.1-9.1,13-16.4,21.2-22.8c38.7-30.5,88.4-46.7,137.7-44.8c12.8,0.5,26.5,2.5,36.1,11
						c6.2,5.5,10.1,13.1,13.5,20.7c4.9,10.9,8.9,22.2,12.2,33.7c17-7.9,37.7,4.8,49.2,19.6c11.5,14.8,15.9,33.7,20.8,51.8
						s11.3,36.8,25.3,49.3c25.4,22.8,64.4,16.4,98.3,20.2c40.6,4.5,79.1,26.5,103.7,59.1c24.6,32.7,35,75.7,28.1,116
						c-1,5.8-2.4,11.8-5.8,16.6c-6.6,9.3-19.5,12.4-30.7,10.6C1602.9,606.3,1590,593.5,1580.2,587.6z"/>
				</g>
				<g>
					<path class="st12" d="M1251.7,310.1c-20.4,7.3-42.3,13.9-63.4,9.1c-21.1-4.8-40.3-24.8-36.5-46.1c3.4-19,22.4-30.9,40.6-37.2
						c8.5-3,17.4-5.3,26.4-4.8c9.5,0.5,18.6,4.2,28.1,5.2c20.9,2.3,40.3-8,58-20.3c-1.5-2-3.1-3.8-5-5.5c-9.6-8.5-23.3-10.5-36.1-11
						c-49.2-1.9-99,14.3-137.7,44.8c-8.2,6.5-16,13.7-21.2,22.8c-3.8,6.8-7.5,33.1,2.4,49.7c2,1.1,4.1,2.2,6.2,3.2
						C1157,340.9,1211.5,337,1251.7,310.1z"/>
				</g>
				<g>
					<path class="st14" d="M1552.7,452.7c-24.6,0-51.1-14.1-72.6-39.2c-10.3-12-19.1-25.5-27.6-38.6c-8.4-12.8-17-26-27-37.8
						c-23.7-27.9-53.6-42-79.8-37.7l-0.5-3.2c27.4-4.4,58.3,10.1,82.8,38.8c10.2,11.9,18.9,25.3,27.3,38.1
						c8.5,13,17.2,26.3,27.4,38.2c23.8,27.8,53.7,41.7,80,37.2l0.6,3.2C1559.7,452.4,1556.2,452.7,1552.7,452.7z"/>
				</g>
				<g>
					<path class="st14" d="M1544.2,436.6c-23.6,0-49.2-9.3-73.5-27c-17-12.4-32.1-27.5-46.7-42c-7.2-7.2-14.7-14.7-22.3-21.7
						c-8.9-8.3-19.6-17.3-32.5-20l0.7-3.2c13.7,2.8,24.8,12.2,34,20.8c7.6,7.1,15.1,14.5,22.4,21.8c14.5,14.5,29.6,29.5,46.4,41.7
						c16.8,12.2,50.4,31.7,86.4,25.1c15.6-2.9,28.1-10.6,34.3-21.3c6.4-11,5.5-28.6-6.1-36.3l1.8-2.7c10.8,7.2,16.2,25.2,7.1,40.7
						c-6.7,11.5-20,19.8-36.6,22.9C1554.6,436.1,1549.5,436.6,1544.2,436.6z"/>
				</g>
				<g>
					<path class="st10" d="M1178.5,945c18.3,18.2,34.7,42.3,59.1,49.2c6.6,1.9,9.2,9.5,4.7,14.4c0,0-0.1,0.1-0.1,0.1
						c-21.9,2.4-43.2-8.1-60.2-21.3c-17-13.3-31.2-29.5-48.6-42.3c-24.8-18.2-54.6-27.9-84.3-36.3c-14.1-4-38.1-6.8-56.1-13.2
						c-10.3-3.7-8.3-18,2.6-19.2c23.8-2.7,55.3,7.3,72.6,11.8C1109,898.9,1149,915.5,1178.5,945z"/>
				</g>
				<g>
					<path class="st15" d="M611,319c0,0-79.7,23.2-37.5,110.1l141.5,13.3l23,43.6l37.5-80.5c0,0,10.7-26.9-32.7-40.6
						S611,319,611,319z"/>
				</g>
				<g>
					<path class="st15" d="M654.9,339.7c0,0,3-25.2,17-25.8c14-0.6,79,17.8,78,31.1s-17,25.5-17,25.5l-8.3-5.7
						c0,0,20.1-10.6,9.7-19.8c-10.4-9.2-60.6-36-65.4-5.3L654.9,339.7z"/>
				</g>
				<path class="st16" d="M754.9,437.6c-2.5,4.6-21.9,30-24.5,23.5c-2.6-6.6-6.9-55,13.5-67.2S772.8,404.3,754.9,437.6z"/>
				<g>
					<path class="st17" d="M754,508.5c-2.5,7.7-6.1,15.1-9.1,22.6c-1,2.6-2,5.5-0.9,8.1c1.9,4.5,8.4,4.5,12.8,2.5
						c9.8-4.3,16.2-14,19.7-24.1c5.8-16.7,5-35.7-2.3-51.8c-5.5-12.1-18.8-30.7-32.9-33C755.1,456.4,762.6,481.4,754,508.5z"/>
				</g>
				<g>
					<g>
						<path class="st17" d="M774.9,546.1c-0.5,5.2-2.1,10.7-4.4,15.3c-2.2,4.2-5.8,7-8.7,10.7c-3.1,4,0.6,9.4,5.4,7.1
							c12.8-6.2,16.4-19.7,16-33.1C783,540.7,775.3,540.9,774.9,546.1L774.9,546.1z"/>
					</g>
				</g>
				<g>
					<g>
						<path class="st17" d="M712.2,562.3c-1.7,7.8-5.5,16.1-3.6,24.2c0.9,3.7,7.1,4,7.8,0c0.6-3.5,1.9-6.3,1.8-9.9
							c-0.2-4.3-0.1-8.1,0.7-12.4C719.7,559.8,713.1,558,712.2,562.3L712.2,562.3z"/>
					</g>
				</g>
				<g>
					<g>
						<path class="st17" d="M893.7,573.3c-8.1,5.2-3.4,15.1,1.8,20.5c5,5.1,14.3,11.6,21.6,11.6c7.4,0,10.9-7.7,7.9-13.8
							c-2.9-6-10.4-7.7-15.7-10.8c-1.5-0.9-3.1-1.8-4.5-2.9c1,0.7-0.8-0.9-1-1c-1-1.1-0.8-0.7,0.5,1.2c-0.3-0.7-0.6-1.5-0.9-2.2
							C902,572.4,896.6,571.5,893.7,573.3L893.7,573.3z"/>
					</g>
				</g>
				<g>
					<g>
						<path class="st17" d="M949.3,747.2c-0.3-0.4-0.6-0.9-0.9-1.3c-1.9-3-5.6-3.3-8.2-1.1c-5.3,4.6-0.2,12.2,4.1,15.2
							c2.2,1.5,4.6,2.9,7.1,3.8c1.4,0.5,3,0.9,4.5,0.9c2.3,0,3.1-0.4,1-0.1c1.8-0.3,2.4-0.2,4-1.1c3.5-2,4.3-6,2.9-9.5
							c-1.4-3.6-4.4-5.6-7.9-7c-2.1-0.8-4.2-1.5-6.4-2.1c-0.8-0.2-1.6-0.4-2.4-0.7c-0.2-0.1-0.9-0.4-1.1-0.3c0.3-0.1,2,1.2,1.5,0.7
							c0.3,2.1,0.5,4.2,0.8,6.4c0.3-0.6,0.6-1.1,0.9-1.7C949.6,748.8,949.7,747.9,949.3,747.2L949.3,747.2z"/>
					</g>
				</g>
				<path class="st18" d="M1817.6,768.2c-0.9-2.2-3-3.6-5.3-3.6c-2.7,0-5.1,1.9-5.6,4.6l-2.7,12.5c-10.2,14.3-0.7,63.1,2.6,78.3
					c0.6,2.7,2.9,4.5,5.6,4.5h2.3c1.9,0,3.8-1,4.8-2.6C1840,829.9,1823,781.6,1817.6,768.2z"/>
				<path class="st15" d="M1746.8,872.7c-12.1-16.1-42-65.6-4.7-122.7c3.1-4.8,9.2-6.6,14.5-4.4l22.5,9.5
					c22.5,9.5,37.4,31.1,38.4,55.5v0c1.1,27.3-15.6,52.4-41.3,61.6c-5.9,2.1-11.9,3.9-17.6,5C1754.1,878,1749.5,876.3,1746.8,872.7z
					"/>
				<path class="st17" d="M1760.7,812.3c-3.3-12.8-15.8-21-27.9-26.5c-46.4-21.1-99.6-21.5-150.3-16.2
					c-50.7,5.3-101.1,15.9-152.1,15.5c-7.9-8.2,3.7-20.6,13.9-25.7c10.5-5.2,22.9-17.2,14.5-26.1c-1.7-1.8-4-3.1-6.4-3.6
					c-66-15.7-131.5,22.3-184.6,63.8c-52.2,40.7-104.1,88.2-169.3,99.6c-43.3,7.6-88.1-4.5-124.2-29.3c3.2,1.5,6.6,2.8,10,4.1
					c17.5,6.4,36.6,11.6,55.1,14.1c9.4,1.3,18-2.1,27.1-3.5c9.6-1.5,19.1-2.4,28.5-5.2c9.1-2.8,18.2-5.9,26.9-9.8
					c8.3-3.7,16-8.4,24.2-12.2c8.5-4,16.7-8.3,24.7-13.4c7.8-4.9,16.1-8.6,23.6-14.2c7.7-5.8,15.9-10.9,23.5-16.7
					c7.6-5.8,14.7-12.1,22.1-18.2c16-13.2,33.3-25.2,50.7-36.5c17.4-11.3,36.5-19.8,55.4-28.5c7.8-3.6,2.2-16.8-5.9-13.9
					c-16.6,6-33.1,12.3-48.9,20.2c-15.8,7.9-30.8,17.7-45.3,27.8c-14.6,10.2-27.9,22.1-42.4,32.4c-7,5-14.2,9.8-21.1,15
					c-7.2,5.4-15.2,8.9-22.7,13.7c-14.7,9.2-30.6,16.9-46.2,24.5c-16.1,7.9-33.1,11.7-50.6,14.5c-7.7,1.2-15.4,4.8-23.3,3.4
					c-9.1-1.6-18.1-3.6-27-5.7c-16.3-3.8-32.4-8.2-47.1-16.4c-8.9-5-16.8-11.4-25.4-16.9c-5.8-3.8-11.4-6.7-16.5-11
					c-9.4-15.1-16.4-31.6-20.2-49.1c-3.7-17-1.3-39.9,15.5-44.4c25-6.7,42,36.8,67.2,31.2c9.8-12.4,0.2-31.5-13.3-39.7
					s-30-10.2-43.9-17.6c-33.4-17.8-43.2-59.9-51.9-96.7c-8.4-35.5-18.9-70.5-31.4-104.8c-8.7-23.7-18.9-47.9-37.9-64.4
					c-17.3-15.1-46.2-11.5-66.5,0.5c-3,1.8-3.7,5.8-1.3,8.5c27.7,31.2,42.9,72,51.2,113c8.7,43.1,10.5,87.3,16.2,130.9
					c4.1,31.4,10.3,62.8,19.8,93.1c-0.1,2.1-0.1,4.3-0.2,6.4c-0.3,15.6,0.3,31.3,3.2,46.7c5.7,30.9,18,60.1,34.2,87
					c15.8,26.3,33.5,50.5,59.4,67.7c13.3,8.8,28.3,15.1,43.3,20.3c14.6,5.1,29.8,8.1,45.4,8.6c18.4,0.6,36.8-1.7,54.9-5
					c8.9-1.6,17.8-3.6,26.6-5.6c9.7-2.1,19.1-4.4,27.9-9.1c7-3.7,3.4-14-3.9-14.3c-31.1-1.2-61.5,7.2-92.5,8.5
					c-28.4,1.2-56.3-6.3-81.4-19.6c-12-6.4-22.5-14.6-32-24.2c-4.4-4.4-8.7-8.9-12.7-13.6c-4.8-5.6-8.3-12.1-12.7-18
					c-8.5-11.3-15.6-24-22.2-36.5c-6.9-12.9-11.2-27.1-15.4-41.1c-0.7-2.5-1.4-4.9-2-7.4c6,12.4,12.7,24.5,20.3,36.1
					c34.9,53.4,89.7,96.1,152.7,106.1c86.2,13.6,168.8-33.3,248.1-69.6c2.8-1.3,5.6-2.5,8.4-3.8c19.6-4.5,39.5-8.3,59-12.5
					c26.6-5.7,53.6-10.3,80.7-12.2c28-2,56-2.1,84-4.2c15.6-1.1,31.2-2.2,46.9-2.1c15,0.1,31.6,2.7,45.6-3.5c4.4-2,4.3-9.5,0-11.5
					c-6.6-3-12.6-5.3-19.9-6.2c-6.8-0.9-13.8-0.5-20.6-0.5c-14.2-0.1-28.3,0.6-42.4,1.6c-28.4,2.1-56.8,3.3-85.2,5.3
					c-11.6,0.8-23.1,2.1-34.6,3.7c111.8-33,230.1-42.3,340.6-8.7C1748.2,846,1765.3,830.1,1760.7,812.3z"/>
				<path class="st19" d="M1742.2,754.7c0,0,42.9,47.4,12,115.2C1754.1,869.9,1703.5,843.7,1742.2,754.7z"/>
				<path class="st20" d="M1760.7,812.3c-3.3-12.8-15.8-21-27.9-26.5c-8.9-4-18-7.3-27.3-9.9c5.9,9.6,7,22.3-0.4,30.6
					c-5.7,6.4-14.9,8.5-23.5,9.2c-31,2.5-61.2-8.4-91.7-14.1c-54.1-10.2-111.1-4-161.8,17.6c-20.3,8.6-39.5,19.7-58.6,30.7
					c3.7,1.5,8.3,1.2,12.4,0.7c4.2-0.5,8.4-1.1,12.5-1.8c-1.5,0.2-3.1,0.4-4.6,0.6c111.8-33,230.1-42.3,340.6-8.7
					C1748.2,846,1765.3,830.1,1760.7,812.3z"/>
				<path class="st21" d="M1081.1,904.8c18-1.5,34.8-9.1,51.5-15.8c6.9-2.8,17.5-3.7,19.2,3.6c0.5,2.4-0.3,4.9,0.3,7.2
					c1,3.7,5.3,5.7,9.1,5.3c3.8-0.4,7.2-2.5,10.3-4.7c9.1-6.3,17.6-13.2,25.6-20.8c1.3-1.2,2.6-2.6,2.8-4.4c0.3-2.6-2.2-4.8-2.7-7.4
					c-0.8-3.7,2.2-7,5.2-9.4c8.5-6.6,18.7-11,29.4-12.6c6.7-1,13.6-1,20.3-2.5c13.7-3.3,24.9-13.2,33.8-24.2
					c8.9-10.9,16.2-23.2,25.8-33.5c20.8-22.5,52.4-34.6,82.9-31.7c2.1,0.2,4.4,0.5,6.1,1.8c8.3,5.9-3.3,22.7,5.2,28.2
					c1.9,1.2,4.3,1.4,6.6,1.3c5.5-0.2,10.8-1.3,16.1-2.6c-3.7-8,6.6-18.4,15.8-23c10.5-5.2,22.9-17.2,14.5-26.1
					c-1.7-1.8-4-3.1-6.4-3.6c-66-15.7-131.5,22.3-184.6,63.8c-52.2,40.7-104.1,88.2-169.3,99.6c-20,3.5-40.4,2.8-60.1-1.4
					C1049.3,902.1,1065.9,906.1,1081.1,904.8z"/>
				<path class="st21" d="M885.1,674.3c2.1,3.5,6.1,5.3,9,8.2c6.2,6.2,6,16.7,2.3,24.7c-3.7,8-10,14.4-15.3,21.5
					c-7.2,9.8-12.6,21.4-12.6,33.5c0,12.1,6.1,24.7,16.9,30.2c3.2-9.4,4.2-19.6,3.1-29.5c7.7,1,9.3,11.1,10.1,18.8
					c4,37.4,34.6,67.7,69.4,81.9c4.4,1.8,8.9,3.4,13.5,4.8c-2.4-1.5-4.8-3-7.1-4.6c3.2,1.5,6.6,2.8,10,4.1c5,1.8,10,3.5,15.2,5.1
					c22.7,4.5,46.4,5.3,69.7,5c8.7-1.3,17.2-2.2,25.7-4.8c9.1-2.8,18.2-5.9,26.9-9.8c8.3-3.7,16-8.4,24.2-12.2
					c8.5-4,16.7-8.3,24.7-13.4c7.8-4.9,16.1-8.6,23.6-14.2c7.7-5.8,15.9-10.9,23.5-16.7c7.6-5.8,14.7-12.1,22.1-18.2
					c16-13.2,33.3-25.2,50.7-36.5c17.4-11.3,36.5-19.8,55.4-28.5c7.8-3.6,2.2-16.8-5.9-13.9c-16.6,6-33.1,12.3-48.9,20.2
					c-15.8,7.9-30.8,17.7-45.3,27.8c-14.6,10.2-27.9,22.1-42.4,32.4c-7,5-14.2,9.8-21.1,15c-7.2,5.4-15.2,8.9-22.7,13.7
					c-14.7,9.2-30.6,16.9-46.2,24.5c-16.1,7.9-33.1,11.7-50.6,14.5c-7.7,1.2-15.4,4.8-23.3,3.4c-9.1-1.6-18.1-3.6-27-5.7
					c-16.3-3.8-32.4-8.2-47.1-16.4c-8.9-5-16.8-11.4-25.4-16.9c-5.8-3.8-11.4-6.7-16.5-11c-9.4-15.1-16.4-31.6-20.2-49.1
					c-3.7-17-1.3-39.9,15.5-44.4c25-6.7,42,36.8,67.2,31.2c9.8-12.4,0.2-31.5-13.3-39.7s-30-10.2-43.9-17.6
					c-27.6-14.7-39.1-46-47.1-77.1c0.5,16.9,1,33.8,1.6,50.6C883.4,668.4,883.5,671.6,885.1,674.3z"/>
				<path class="st21" d="M813.6,487.8c0.4,6.2-0.4,12.6,1.5,18.5c3.3,10.6,14,17.1,19.5,26.8c11.3,20-1.6,49.3,14.3,66
					c1.9,2,4.6,3.7,7.1,2.9c3.6-1.2,3.9-6.1,3.5-9.9c-1.4-13.3-2.7-26.6-4.1-39.9c-0.6-6.2-1.3-12.5-4-18.1
					c-5.7-12.1-19.5-19-24.2-31.5c-4-10.6-0.6-22.9-4.7-33.4c-3.6-9.2-12.3-15.2-19.1-22.3c-8.8-9.1-15.2-20.6-25.4-28
					c-1.3-0.9-2.8-1.9-4.5-2.7c-4.9,0.4-9.9,1.3-14.8,2.7c8.2,5.2,16.4,9.8,23.8,17.1C797.1,450.5,812.1,467.3,813.6,487.8z"/>
				<path class="st20" d="M1365.9,847.6c-4.5-4.4-3.9-11.6-4.8-17.8c-1.4-10.2-8-19.5-17.1-24.2c-5.8-3-13-4.1-18.6-0.8
					c-5.6,3.3-7.8,12.1-3.1,16.5c2.4,2.3,5.9,3,8.6,4.9c6.5,4.7,5.9,15.1,1,21.4s-12.8,9.4-20.2,12.2
					c-36.9,13.7-74.9,26.1-107.2,48.5c-18.7,13-38,30.1-60.7,27.6c-2.9-5.7,6.4-11.7,4.7-17.9c-1.3-4.5-7.4-5.4-12.1-4.4
					c-20.6,4.5-33.2,25.8-52.3,34.7c-18.9,8.8-41,4.3-61-1.2c-21.1-5.8-43.7-13.7-55.6-32.1c-6.3-9.8-9-21.6-15.7-31.2
					c-16.7-23.8-52.4-28.1-71.2-50.4c-29.5-34.9-46.9-79.9-48.4-125.6c-0.2-5.3,1.1-12.2,6.3-13.1c7.4-1.2,9.3,10.4,15.5,14.6
					c5.2-4.7,5.3-13.1,2.4-19.5c-2.9-6.4-8-11.4-12.6-16.7c-34-39.6-33.5-96.9-37.9-148.9c-2.1-25-6-50.7-19.5-71.8
					c-8.8-13.8-22.6-25.1-38-29.9c-2.6,1.2-5.1,2.4-7.4,3.8c-3,1.8-3.7,5.8-1.3,8.5c2.7,3,5.2,6.1,7.6,9.2
					c9.8,20.2,14,41.6,6.7,64.4c-2.5,7.7-6.1,15.1-9.1,22.6c-1,2.6-2,5.5-0.9,8.1c1.9,4.5,8.4,4.5,12.8,2.5
					c9.8-4.3,16.2-14,19.7-24.1c1.3-3.9,2.3-7.8,3-11.9c4.7,13.7,8.4,27.9,11.3,42.1c8.7,43.1,10.5,87.3,16.2,130.9
					c4.1,31.4,10.3,62.8,19.8,93.1c-0.1,2.1-0.1,4.3-0.2,6.4c-0.3,15.6,0.3,31.3,3.2,46.7c5.7,30.9,18,60.1,34.2,87
					c15.8,26.3,33.5,50.5,59.4,67.7c13.3,8.8,28.3,15.1,43.3,20.3c14.6,5.1,29.8,8.1,45.4,8.6c18.4,0.6,36.8-1.7,54.9-5
					c8.9-1.6,17.8-3.6,26.6-5.6c9.7-2.1,19.1-4.4,27.9-9.1c7-3.7,3.4-14-3.9-14.3c-31.1-1.2-61.5,7.2-92.5,8.5
					c-28.4,1.2-56.3-6.3-81.4-19.6c-12-6.4-22.5-14.6-32-24.2c-4.4-4.4-8.7-8.9-12.7-13.6c-4.8-5.6-8.3-12.1-12.7-18
					c-8.5-11.3-15.6-24-22.2-36.5c-6.9-12.9-11.2-27.1-15.4-41.1c-0.7-2.5-1.4-4.9-2-7.4c6,12.4,12.7,24.5,20.3,36.1
					c34.9,53.4,89.7,96.1,152.7,106.1c86.2,13.6,168.8-33.3,248.1-69.6c2.8-1.3,5.6-2.5,8.4-3.8c19.6-4.5,39.5-8.3,59-12.5
					c26.6-5.7,53.6-10.3,80.7-12.2c28-2,56-2.1,84-4.2c15.6-1.1,31.2-2.2,46.9-2.1c15,0.1,31.6,2.7,45.6-3.5c4.4-2,4.3-9.5,0-11.5
					c-6.6-3-12.6-5.3-19.9-6.2c-6.8-0.9-13.8-0.5-20.6-0.5c-14.2-0.1-28.3,0.6-42.4,1.6c-28.4,2.1-56.8,3.3-85.2,5.3
					c-10,0.7-20.1,1.7-30,3.1c-4.2,0.7-8.4,1.3-12.5,1.8C1376.4,851.2,1370,851.5,1365.9,847.6z"/>
				<g>
					<g>
						<path class="st17" d="M1627.9,844.7c-0.2,0.3-0.4,0.5-0.5,0.8c-1.3,1.8-0.6,4.5,0.8,6c4.9,5.1,11.2,6.2,17.8,8
							c7.8,2.1,16.1,4.2,21.6-3.1c2-2.7,0.7-6.2-1.1-8.5c-4.4-5.6-12.6-5.5-19-5.6c-3.1-0.1-5.7,0.2-8.8,0.5
							c-2.9,0.2-5.5-0.2-8.3,0.5c1.3,0.2,2.5,0.3,3.8,0.5c-0.2-0.1-0.5-0.3-0.7-0.4C1631.5,842.1,1629.2,842.9,1627.9,844.7
							L1627.9,844.7z"/>
					</g>
				</g>
				<path class="st3" d="M761.3,324.3c0,0-38.2-29.7-53.2-28.1c-15,1.6-29.6,19.8-24.2,28.1c0,0-0.5,5.4,2.4,7.5c0,0,6.8,0,16.2,0
					c0,0,7.5-4.3,10.6-8.7c0,0-9.9,21.3-5.7,23.5c4.3,2.2,14.1-17.4,19.8-17.5c5.7-0.1,19.2,13.1,19.2,13.1S756.3,333.8,761.3,324.3
					z"/>
			</g>
			<g>
				<path class="st5" d="M508.5,697.3l101.8,176.2c4.3,7.4,13.4,10.4,21.2,6.9l55.7-24.4c7.4-3.2,11.4-11.3,9.6-19.2l-46.1-194.4
					L508.5,697.3z"/>
				<path class="st22" d="M533.1,739.8l39.8,68.9c24.9-3.2,68.7-12.9,107-42.8l-18.3-77.1C613.5,731.3,553.4,738.6,533.1,739.8z"/>
				<path class="st23" d="M632.1,623.5l-2.9-7.2c-1.3-3.1-4.8-4.6-7.9-3.3l-118,50.5c-3,1.3-4.4,4.7-3.2,7.7l1.4,3.6
					c1.2,3.1,4.7,4.6,7.8,3.4l119.5-46.9C631.8,630.1,633.4,626.6,632.1,623.5z"/>
				<path class="st24" d="M658.1,631l-3.7-9.2c-1.6-4-6.2-5.8-10.1-4.2l-150.2,64.2c-3.8,1.6-5.6,6-4.1,9.8l1.8,4.6
					c1.5,4,6,5.9,9.9,4.4L653.8,641C657.8,639.5,659.7,635,658.1,631z"/>
			</g>
			<g>
				<path class="st25" d="M1512.9,1404c0.1-0.1,0.1-0.3,0.1-0.4l1.3-4.2c-2.8,7.5-34.1,2.5-69.8-11.1c-35-13.3-61.3-30-59.6-37.7
					l-1.1,4c0,0.1-0.1,0.1-0.1,0.2c-2.8,7.5,23.8,24.5,59.5,38.1S1510.1,1411.5,1512.9,1404z"/>
				<path class="st22" d="M1444.5,1388.4c35.7,13.6,66.9,18.5,69.8,11.1c2.8-7.5-23.8-24.5-59.5-38.1
					c-35.7-13.6-66.9-18.5-69.8-11.1c-0.1,0.1-0.1,0.3-0.1,0.4C1383.2,1358.4,1409.5,1375,1444.5,1388.4z"/>
				<path class="st26" d="M1413.2,1234.2l2.8,126.9c0,0,35.4,37,69.7,28.1l71.4-104.1L1413.2,1234.2z"/>
				<path class="st27" d="M1476,1278c42.2,12.7,78.5,15.9,81.1,7c2.7-8.8-29.4-26.3-71.5-39c-42.2-12.7-78.5-15.9-81.1-7
					c-0.1,0.2-0.1,0.3-0.1,0.5C1403,1248.5,1434.6,1265.5,1476,1278z"/>
				<g>
					<g>
						<path class="st25" d="M1546.8,1239.3c0-0.2,0-0.3,0-0.5l-0.4-5c0.1,9.2-35.5,17.1-79.5,17.6c-43.2,0.5-78.4-6.3-79.9-15.2
							l0.4,4.7c0,0.1,0,0.2,0,0.3c0.1,9.2,35.9,16.3,79.9,15.8C1511.3,1256.4,1546.9,1248.5,1546.8,1239.3z"/>
						<path class="st22" d="M1466.8,1251.4c44-0.5,79.6-8.4,79.5-17.6c-0.1-9.2-35.9-16.3-79.9-15.8c-44,0.5-79.6,8.4-79.5,17.6
							c0,0.2,0,0.3,0,0.5C1388.3,1245.1,1423.6,1251.9,1466.8,1251.4z"/>
						<path class="st25" d="M1389.2,1127.8l24.1,106.4c0,0,43.5,20.9,102.6,0l-2.4-124.7c0,0-108.6,6.8-120,18.3"/>
						<path class="st28" d="M1444.7,1205.6c-4.2-26.6-6.1-53.6-5.7-80.6c0-2.9,0.1-5.8,0.8-8.6c-6.6,0.9-13.1,1.8-18.9,2.9
							c4.7,39,11.4,86,20.1,122.5c2.5,0.4,5.2,0.7,8,1C1449.1,1230.4,1446.7,1218,1444.7,1205.6z"/>
						<path class="st28" d="M1479.2,1112.1c-7.6,0.7-15.9,1.5-24.3,2.5c3.9,29.4,7.5,58.9,10.8,88.4c1.5,13.8,3.2,28.2,10.4,39.8
							c2.8-0.2,5.6-0.6,8.5-1C1488.8,1198.8,1479.3,1155.4,1479.2,1112.1z"/>
					</g>
					<g>
						<path class="st25" d="M1522.5,1104.3c0-0.2-0.1-0.3-0.1-0.5l-1.1-4.9c1.4,9.1-32.8,21.8-76.4,28.3
							c-42.7,6.4-78.6,4.5-81.2-4.2l1.1,4.6c0,0.1,0,0.2,0,0.3c1.4,9.1,37.8,11.2,81.3,4.7C1489.7,1126,1523.9,1113.4,1522.5,1104.3
							z"/>
						<path class="st22" d="M1444.9,1127.1c43.5-6.5,77.7-19.2,76.4-28.3c-1.4-9.1-37.8-11.2-81.3-4.7
							c-43.5,6.5-77.7,19.2-76.4,28.3c0,0.2,0.1,0.3,0.1,0.5C1366.3,1131.6,1402.2,1133.5,1444.9,1127.1z"/>
					</g>
				</g>
				<path class="st28" d="M1519.3,1142.2c-3.8,0.1-8.4,0.3-12.2,0.4c-4,0.1-7.2,3.4-7.2,7.4l0,0c0,4.1,3.3,7.5,7.5,7.5h12.2
					c4.2,0,7.7-3.4,7.7-7.7C1527.2,1145.5,1523.6,1142,1519.3,1142.2z"/>
				<path class="st17" d="M1420.4,1291.1l0.5,64.3c0,0,24.7,36.8,64.3,27.6l29.4-52.5c-2.2-5.3-8-9.5-13.7-10.3
					c-7.4-1-15.6,2.8-21.9-1.2c-2.4-1.5-4-3.9-5.6-6.2c-2.4-3.5-4.8-7.1-7.1-10.6c-3.1-4.6-6.8-9.6-12.2-10.5
					c-3.7-0.6-7.7,0.8-10.9-1.2c-2.5-1.6-3.6-4.8-6.1-6.4c-2.6-1.8-6.3-1.3-9,0.4S1422.3,1288.5,1420.4,1291.1z"/>
				<path class="st20" d="M1472.9,1342.3c-9.1-2.3-18-6-25-12.3c-7.1-6.3-12-14.9-19.3-21.1c-2.5-2.1-5.3-3.9-8.2-5.4l0.4,51.7
					c0,0,24.7,36.8,64.3,27.6l21.9-39.1C1495.7,1345.6,1484,1345.1,1472.9,1342.3z"/>
				<path class="st17" d="M1495.7,1323.3c7-4.2,13.1-9.9,18.9-15.6c5.7-5.5,11.3-11.1,15.5-17.8c1.8-2.9,3.3-6,5.4-8.7
					c3.4-4.4,8.3-7.4,13.1-10.4c16.5-10.2,32.9-20.3,50.1-29.2c16.8-8.7,35.8-16.4,54.3-12.1c3,0.7,6,1.8,8.3,3.8
					c2.3,2.1,3.8,5.3,3.1,8.3c-0.8,3.6-4.3,5.8-7.6,7.4c-20.9,10.2-45.3,10.2-67.6,17.2c-1.9,0.6-3.9,1.4-4.6,3.3
					c-1,2.6,1.5,5.1,3,7.5c3.5,5.6,1.5,13-1.9,18.6c-0.8,1.4-1.8,2.7-3.2,3.3c-3.4,1.4-6.8-2.1-9.2-4.9c-3.4-3.9-7.7-7.2-12.7-8.3
					c-7.9-1.6-16,2.8-21.4,8.7c-5.5,5.9-9,13.3-13.6,20c-5.7,8.4-12.9,15.7-20.8,22c-4,3.2-8.3,6.2-13.3,7.8
					c-4.9,1.5-10.6,1.4-14.9-1.4c-4.1-2.6-8.6-10.8-3.2-13.7c2.4-1.3,8.1-0.4,11-1.2C1488.5,1327.1,1492.2,1325.4,1495.7,1323.3z"/>
				<path class="st17" d="M1643.2,1270.2c4.3,0.6,8.9,1.9,11.8,5.2c3.9,4.4,3.4,11.9-1,15.7c-4.3,3.8-11,3.6-16.4,1.5
					c-4.8-1.9-19.6-9.1-19.6-15C1618,1267.5,1637.2,1269.4,1643.2,1270.2z"/>
			</g>
			<g>
				<path class="st17" d="M510.5,1009.3c4.8,4.4,11.7,8.2,17.4,5.1c4.5-2.4,5.9-8,6.9-13c2.8-15.4,4.4-32.9-6-46
					c-5.7-7.2-21-18.5-31.2-15.4C470.6,948.2,498.8,998.5,510.5,1009.3z"/>
				<path class="st20" d="M510.1,986.2c-7-9.7-10.4-21.8-10.3-33.8c0.1-3.7,0.5-7.5,2.8-10.4c0.7-0.9,1.7-1.6,2.7-2.1
					c-2.7-0.6-5.4-0.7-7.7,0c-27,8.3,1.1,58.5,12.9,69.3c4.8,4.4,11.7,8.2,17.4,5.1c4.5-2.4,5.9-8,6.9-13c0.1-0.4,0.2-0.9,0.2-1.3
					c-0.1,0-0.2,0-0.3,0C525,1000.8,515.9,994.2,510.1,986.2z"/>
				<g>
					<path class="st20" d="M509.2,956.9c3,9.6,3.9,26.2,14.7,30.4c3.6,1.4,5.9-2.6,5.5-5.5c-0.7-5.3-4.6-9.7-6.8-14.4
						c-2.1-4.5-3.5-9.2-5.6-13.7C515,949.2,507.8,952.3,509.2,956.9L509.2,956.9z"/>
				</g>
			</g>
			<g>
				<path class="st17" d="M494.8,588.1c6.4-0.8,13.9-3.6,15.2-9.9c1-5-2.3-9.7-5.5-13.7c-9.9-12.2-22.2-24.7-38.9-25.2
					c-9.2-0.3-27.7,4-32,13.7C422.4,578.9,479,590.1,494.8,588.1z"/>
				<path class="st20" d="M476.9,573.5c-11.9-1-23.4-6.2-32.3-14.1c-2.8-2.4-5.4-5.3-6.1-8.9c-0.2-1.1-0.1-2.3,0.2-3.5
					c-2.2,1.7-4,3.7-5,5.9c-11.3,25.9,45.3,37.1,61.1,35.1c6.4-0.8,13.9-3.6,15.2-9.9c1-5-2.3-9.7-5.5-13.7c-0.3-0.3-0.6-0.7-0.8-1
					c-0.1,0.1-0.1,0.2-0.1,0.2C497.7,571.7,486.8,574.3,476.9,573.5z"/>
				<g>
					<path class="st20" d="M454.1,555.2c9.3,3.9,22.5,14,32.7,8.5c3.4-1.8,1.9-6.2-0.6-7.8c-4.5-2.9-10.4-2.8-15.4-4.2
						c-4.8-1.3-9.3-3.3-14.1-4.7C451.9,545.8,449.6,553.3,454.1,555.2L454.1,555.2z"/>
				</g>
			</g>
			<g>
				<path class="st17" d="M1633,1167.5c3.4-2.3,6.7-6,5.7-9.9c-0.9-3.1-4.1-4.8-7-6.1c-9.1-4-19.5-7.4-29-2.9
					c-5.2,2.5-14.4,10.2-13.9,16.9C1589.9,1183.2,1624.7,1173.1,1633,1167.5z"/>
				<path class="st20" d="M1618.8,1164.4c-7,2.9-14.8,3.3-22.2,1.4c-2.2-0.6-4.5-1.4-6-3.2c-0.4-0.6-0.8-1.3-0.9-2
					c-0.8,1.6-1.2,3.2-1.1,4.7c1.2,17.8,36,7.7,44.3,2.1c3.4-2.3,6.7-6,5.7-9.9c-0.9-3.1-4.1-4.8-7-6.1c-0.3-0.1-0.5-0.2-0.8-0.3
					c0,0.1,0,0.1,0,0.2C1629.9,1157.4,1624.5,1162.1,1618.8,1164.4z"/>
				<g>
					<path class="st20" d="M1600.7,1160.8c6.3-0.5,16.6,1.4,20.7-4.7c1.4-2-0.7-4-2.6-4.2c-3.3-0.3-6.6,1.5-9.8,2.1
						c-3.1,0.6-6.2,0.8-9.2,1.5C1596.8,1156.1,1597.7,1161,1600.7,1160.8L1600.7,1160.8z"/>
				</g>
			</g>
			<g>
				<path class="st17" d="M1333.2,1265c6.1-1,13-4,14-10.1c0.8-4.8-2.6-9.1-5.8-12.7c-10-11.1-22.2-22.4-38.1-22.2
					c-8.7,0.1-26.1,5.1-29.7,14.5C1264.1,1259.6,1318.3,1267.6,1333.2,1265z"/>
				<path class="st20" d="M1315.6,1252c-11.4-0.4-22.4-4.8-31.3-11.9c-2.7-2.2-5.4-4.8-6.2-8.2c-0.3-1.1-0.2-2.2,0-3.3
					c-2,1.7-3.6,3.6-4.5,5.8c-9.5,25.1,44.7,33.1,59.6,30.5c6.1-1,13-4,14-10.1c0.8-4.8-2.6-9.1-5.8-12.7c-0.3-0.3-0.6-0.6-0.9-0.9
					c0,0.1-0.1,0.1-0.1,0.2C1335.2,1249.3,1325,1252.3,1315.6,1252z"/>
				<g>
					<path class="st20" d="M1293,1235.7c9,3.3,22,12.3,31.4,6.6c3.1-1.9,1.5-5.9-0.9-7.4c-4.4-2.5-10-2.1-14.8-3.2
						c-4.6-1.1-9-2.7-13.6-3.8C1290.6,1226.8,1288.7,1234.1,1293,1235.7L1293,1235.7z"/>
				</g>
			</g>
			<g>
				<path class="st17" d="M1464.8,969.4c4.1,2.9,9.9,5.1,13.9,2.1c3.2-2.3,3.7-6.8,3.9-10.7c0.6-12.1-0.1-25.6-9.4-34.6
					c-5.1-4.9-18-12-25.5-8.6C1427.8,926.8,1454.7,962.4,1464.8,969.4z"/>
				<path class="st20" d="M1462,951.8c-6.4-6.7-10.3-15.6-11.4-24.8c-0.3-2.8-0.4-5.8,1.1-8.3c0.5-0.8,1.1-1.4,1.9-1.9
					c-2.2-0.2-4.2,0-5.9,0.8c-19.9,9.1,7,44.7,17.1,51.7c4.1,2.9,9.9,5.1,13.9,2.1c3.2-2.3,3.7-6.8,3.9-10.7c0-0.3,0-0.7,0-1
					c-0.1,0-0.1,0-0.2,0.1C1474.9,961.4,1467.3,957.3,1462,951.8z"/>
				<g>
					<path class="st20" d="M1458.3,929.5c3.3,7,5.8,19.7,14.5,21.7c2.9,0.7,4.3-2.6,3.7-4.8c-1.1-4-4.6-6.9-6.7-10.3
						c-2.1-3.2-3.7-6.7-5.7-9.9C1461.9,922.9,1456.7,926.1,1458.3,929.5L1458.3,929.5z"/>
				</g>
			</g>
			<g>
				<path class="st17" d="M1785,687.8c4.1,2.9,9.9,5.1,13.9,2.1c3.2-2.3,3.7-6.8,3.9-10.7c0.6-12.1-0.1-25.6-9.4-34.6
					c-5.1-4.9-18-12-25.5-8.6C1748,645.2,1774.9,680.8,1785,687.8z"/>
				<path class="st20" d="M1782.2,670.2c-6.4-6.7-10.3-15.6-11.4-24.8c-0.3-2.8-0.4-5.8,1.1-8.3c0.5-0.8,1.1-1.4,1.9-1.9
					c-2.2-0.2-4.2,0-5.9,0.8c-19.9,9.1,7,44.7,17.1,51.7c4.1,2.9,9.9,5.1,13.9,2.1c3.2-2.3,3.7-6.8,3.9-10.7c0-0.3,0-0.7,0-1
					c-0.1,0-0.1,0-0.2,0.1C1795.2,679.9,1787.5,675.8,1782.2,670.2z"/>
				<g>
					<path class="st20" d="M1778.5,647.9c3.3,7,5.8,19.7,14.5,21.7c2.9,0.7,4.3-2.6,3.7-4.8c-1.1-4-4.6-6.9-6.7-10.3
						c-2.1-3.2-3.7-6.7-5.7-9.9C1782.1,641.4,1776.9,644.5,1778.5,647.9L1778.5,647.9z"/>
				</g>
			</g>
			<g>
				<path class="st17" d="M742.7,715.9c4.1,2.9,9.9,5.1,13.9,2.1c3.2-2.3,3.7-6.8,3.9-10.7c0.6-12.1-0.1-25.6-9.4-34.6
					c-5.1-4.9-18-12-25.5-8.6C705.8,673.3,732.6,708.9,742.7,715.9z"/>
				<path class="st20" d="M740,698.3c-6.4-6.7-10.3-15.6-11.4-24.8c-0.3-2.8-0.4-5.8,1.1-8.3c0.5-0.8,1.1-1.4,1.9-1.9
					c-2.2-0.2-4.2,0-5.9,0.8c-19.9,9.1,7,44.7,17.1,51.7c4.1,2.9,9.9,5.1,13.9,2.1c3.2-2.3,3.7-6.8,3.9-10.7c0-0.3,0-0.7,0-1
					c-0.1,0-0.1,0-0.2,0.1C752.9,707.9,745.2,703.8,740,698.3z"/>
				<g>
					<path class="st20" d="M736.2,676c3.3,7,5.8,19.7,14.5,21.7c2.9,0.7,4.3-2.6,3.7-4.8c-1.1-4-4.6-6.9-6.7-10.3
						c-2.1-3.2-3.7-6.7-5.7-9.9C739.9,669.4,734.7,672.6,736.2,676L736.2,676z"/>
				</g>
			</g>
			<g>
				<path class="st17" d="M1169.3,1594c4.7-1.7,9.9-5.1,9.8-10.1c-0.1-3.9-3.4-6.9-6.5-9.4c-9.6-7.5-21-14.8-33.7-12.3
					c-7,1.3-20.2,7.8-21.7,15.8C1113.2,1599.6,1157.7,1598.2,1169.3,1594z"/>
				<path class="st20" d="M1153.3,1586.1c-9.2,1.3-18.7-0.7-26.8-5.1c-2.5-1.3-5-3.1-6.1-5.7c-0.4-0.8-0.5-1.7-0.5-2.6
					c-1.4,1.7-2.4,3.4-2.7,5.3c-4,21.5,40.5,20.2,52.1,16c4.7-1.7,9.9-5.1,9.8-10.1c-0.1-3.9-3.4-6.9-6.5-9.4
					c-0.3-0.2-0.5-0.4-0.8-0.6c0,0.1,0,0.1-0.1,0.2C1168.7,1581.1,1160.9,1585,1153.3,1586.1z"/>
				<g>
					<path class="st20" d="M1132.9,1576.2c7.7,1.4,19.4,6.7,26.1,0.8c2.2-2,0.4-5-1.8-5.8c-3.9-1.4-8.3-0.3-12.3-0.5
						c-3.8-0.2-7.6-0.9-11.4-1.1C1129.7,1569.5,1129.3,1575.6,1132.9,1576.2L1132.9,1576.2z"/>
				</g>
			</g>
			<g>
				<path class="st17" d="M1795.3,1131.7c4.9,1.1,11,1.1,13.7-3.1c2.1-3.3,1-7.7-0.3-11.4c-3.9-11.5-9.5-23.8-21.5-28.7
					c-6.6-2.7-21.2-4.5-26.8,1.4C1745.2,1105.7,1783.3,1128.8,1795.3,1131.7z"/>
				<path class="st20" d="M1786.2,1116.3c-8.4-3.9-15.3-10.7-19.7-18.9c-1.4-2.5-2.5-5.3-2-8.1c0.1-0.9,0.5-1.7,1-2.5
					c-2.1,0.6-3.9,1.6-5.2,3c-15.1,15.8,23,39,34.9,41.8c4.9,1.1,11,1.1,13.7-3.1c2.1-3.3,1-7.7-0.3-11.4c-0.1-0.3-0.2-0.6-0.3-1
					c-0.1,0-0.1,0.1-0.2,0.1C1801.8,1120.5,1793.2,1119.5,1786.2,1116.3z"/>
				<g>
					<path class="st20" d="M1774.5,1096.9c5.7,5.3,12.6,16.2,21.5,14.9c3-0.4,3-4,1.6-5.8c-2.5-3.3-6.8-4.8-10.1-7.1
						c-3.1-2.3-5.9-4.9-9-7.1C1775.5,1089.5,1771.8,1094.3,1774.5,1096.9L1774.5,1096.9z"/>
				</g>
			</g>
			<g>
				<path class="st17" d="M754.5,1356.3c4.9,1.1,11,1.1,13.7-3.1c2.1-3.3,1-7.7-0.3-11.4c-3.9-11.5-9.5-23.8-21.5-28.7
					c-6.6-2.7-21.2-4.5-26.8,1.4C704.5,1330.3,742.5,1353.5,754.5,1356.3z"/>
				<path class="st20" d="M745.4,1341c-8.4-3.9-15.3-10.7-19.7-18.9c-1.4-2.5-2.5-5.3-2-8.1c0.1-0.9,0.5-1.7,1-2.5
					c-2.1,0.6-3.9,1.6-5.2,3c-15.1,15.8,23,39,34.9,41.8c4.9,1.1,11,1.1,13.7-3.1c2.1-3.3,1-7.7-0.3-11.4c-0.1-0.3-0.2-0.6-0.3-1
					c-0.1,0-0.1,0.1-0.2,0.1C761,1345.2,752.4,1344.2,745.4,1341z"/>
				<g>
					<path class="st20" d="M733.7,1321.6c5.7,5.3,12.6,16.2,21.5,14.9c3-0.4,3-4,1.6-5.8c-2.5-3.3-6.8-4.8-10.1-7.1
						c-3.1-2.3-5.9-4.9-9-7.1C734.7,1314.2,731,1319,733.7,1321.6L733.7,1321.6z"/>
				</g>
			</g>
		</g>
		<ellipse class="st11" cx="1226.9" cy="411.4" rx="9.6" ry="17.3"/>
		<ellipse class="st11" cx="1148.8" cy="399.4" rx="9.6" ry="17.3"/>
		<g>
			<path class="st13" d="M1171.9,384.7c-1.7,15.1-6.7,29.6-10.3,44.2c-1.4,5.7-3.6,12.6-1.4,18.4c2.3,5.8,7.7,7.7,13.1,9.7
				c5.2,1.9,7.8-5,4.9-8.4c-1.5-1.8-3.4-2.8-5.2-4.2c-2.4-1.8-2-3.3-1.6-6.1c0.9-6.2,2.5-12.4,3.9-18.5c2.6-11.5,5.6-23.2,4.3-35.1
				C1179,379.8,1172.5,379.8,1171.9,384.7L1171.9,384.7z"/>
		</g>
		<g>
			<path class="st13" d="M1165.2,467c3.5,5,6.3,11.1,11.2,15c6.3,4.9,13.9,5.2,21.5,3.4c16.4-3.7,31-12.8,43.8-23.3
				c5.2-4.3-1.5-12.7-7.2-9.3c-10.9,6.6-21.3,14.2-33.3,19c-5.3,2.1-12,4.6-17.8,2.9c-5.6-1.7-9.7-6.2-13-10.7
				C1168.1,460.9,1162.9,463.8,1165.2,467L1165.2,467z"/>
		</g>
	</g>
</g>
</svg>
